<svg id="Camada_1" data-name="Camada 1" xmlns="http://www.w3.org/2000/svg" viewBox="0 0 604 100"><title>blackPrancheta 1</title><path d="M35.57,99.48Q18.78,99.48,9.5,90T.23,63.13q0-17.17,9-27.32T32.73,25.66A32.82,32.82,0,0,1,44.3,27.54a23,23,0,0,1,8.8,5.91,27.14,27.14,0,0,1,5.78,9.84,43.9,43.9,0,0,1,2,14.24V64H12.24q0,12.26,6.16,18.74t17,6.48a33.18,33.18,0,0,0,7.64-.88A36.22,36.22,0,0,0,49.84,86a48.82,48.82,0,0,0,5.41-2.8,32.22,32.22,0,0,0,3.65-2.55h.69V93.57l-5.16,2a56.44,56.44,0,0,1-5.53,1.92q-3.46.95-6.26,1.45A41.07,41.07,0,0,1,35.57,99.48ZM49.4,54.9a32.89,32.89,0,0,0-1.13-8.24,17,17,0,0,0-2.89-5.85,13.25,13.25,0,0,0-5.31-4,20.48,20.48,0,0,0-8-1.38,20.34,20.34,0,0,0-8,1.41,19.11,19.11,0,0,0-6,4.12,19.67,19.67,0,0,0-4,6.13,26.38,26.38,0,0,0-1.76,7.83Z"/><path d="M91.84,99.54a44.5,44.5,0,0,1-13.17-1.89,58.61,58.61,0,0,1-10.16-4V80.36h.63q1.51,1.2,3.55,2.64a35,35,0,0,0,5.44,3,50.3,50.3,0,0,0,6.63,2.45,26.4,26.4,0,0,0,7.51,1.07,30.08,30.08,0,0,0,6-.66,14.58,14.58,0,0,0,4.78-1.67,10,10,0,0,0,3.18-3.08,9.77,9.77,0,0,0,1-4.9q0-4.21-2.3-6.35T96.81,69.3Q94.55,68.73,90.9,68t-6.73-1.64q-8.05-2.32-11.7-7.2a19.11,19.11,0,0,1-3.65-11.79A19.2,19.2,0,0,1,76,31.88q7.17-6,19.05-6a49.33,49.33,0,0,1,11.76,1.45A41.25,41.25,0,0,1,116.75,31V43.64h-.63A36.91,36.91,0,0,0,106,38,31.93,31.93,0,0,0,94.8,35.91a18.64,18.64,0,0,0-9.87,2.45,8.11,8.11,0,0,0-4,7.42q0,4.4,2.39,6.57T91,55.9q2.64.69,5.88,1.35t6.82,1.54q7.8,1.95,11.73,6.48t3.93,12.32a21,21,0,0,1-1.79,8.58,18.93,18.93,0,0,1-5.25,6.95,26.82,26.82,0,0,1-8.52,4.78A37.06,37.06,0,0,1,91.84,99.54Z"/><path d="M151.58,99.23q-9.68,0-15.09-5.5t-5.41-17.39V37.41h-8V27.61h8V7.42H142.9V27.61h21.76v9.81H142.9V70.8q0,5.35.19,8.24a14,14,0,0,0,1.45,5.41,6.9,6.9,0,0,0,3.46,3.3,15.71,15.71,0,0,0,6.48,1.1,18.61,18.61,0,0,0,5.6-.85,33.06,33.06,0,0,0,3.9-1.41h.69V97.22a57.1,57.1,0,0,1-6.76,1.48A41.29,41.29,0,0,1,151.58,99.23Z"/><path d="M228.11,97.84H216.29V90a51.43,51.43,0,0,1-10.38,7.26A23.87,23.87,0,0,1,195,99.79a24.56,24.56,0,0,1-8.65-1.51,18.08,18.08,0,0,1-7.07-4.78,22.5,22.5,0,0,1-4.69-8.24,38.21,38.21,0,0,1-1.67-12.07V27.61h11.82v40a86.21,86.21,0,0,0,.41,9.28A18.08,18.08,0,0,0,187,83.32a9.07,9.07,0,0,0,3.93,4A16.15,16.15,0,0,0,198,88.54a20.75,20.75,0,0,0,9.24-2.45,42.24,42.24,0,0,0,9-6V27.61h11.82Z"/><path d="M299.29,97.84H287.47V90.68q-2.77,2.32-4.78,3.83A26.38,26.38,0,0,1,278,97.28a27.13,27.13,0,0,1-5.22,1.85,26.63,26.63,0,0,1-6.29.66,23.74,23.74,0,0,1-10.59-2.39,22.55,22.55,0,0,1-8.27-7,34.4,34.4,0,0,1-5.35-11.48,59,59,0,0,1-1.89-15.69,48.07,48.07,0,0,1,2.39-16,37.75,37.75,0,0,1,6.6-11.79,27.37,27.37,0,0,1,9.27-7.2A26.08,26.08,0,0,1,270,25.66a32.24,32.24,0,0,1,9.18,1.16,40.35,40.35,0,0,1,8.24,3.62V0h11.82Zm-11.82-17.1V40.24a38.78,38.78,0,0,0-7.89-3,33.23,33.23,0,0,0-7.58-.82q-9.12,0-14.27,6.82T252.57,63q0,12.39,4,19t12.7,6.57a22.8,22.8,0,0,0,9.37-2.11A35.92,35.92,0,0,0,287.47,80.74Z"/><path d="M329.28,15.85H315.83V3.59h13.46Zm-.82,82H316.65V27.61h11.82Z"/><path d="M403.61,62.76q0,17.73-8.55,27.38t-22.76,9.65q-14.65,0-23-10t-8.4-27.07q0-17.61,8.65-27.35t22.79-9.75q14.21,0,22.76,9.72T403.61,62.76Zm-12.2,0q0-13.65-5-20.28t-14.15-6.63q-9.24,0-14.24,6.63t-5,20.28q0,13.2,5,20t14.24,6.82q9.12,0,14.12-6.7T391.41,62.76Z"/><path d="M455,90.36q-1.45,1.07-3.87,3a27.14,27.14,0,0,1-4.68,3,35.4,35.4,0,0,1-6.07,2.52,29.9,29.9,0,0,1-8.21.88,21.24,21.24,0,0,1-15.09-6.22,21.42,21.42,0,0,1-4.53-7.14,23.87,23.87,0,0,1-1.7-9,23.67,23.67,0,0,1,3.08-12.42,21,21,0,0,1,9.75-8.14,48.49,48.49,0,0,1,14-3.74q8-1,17.36-1.54V49.36a15.22,15.22,0,0,0-1.26-6.7,9.33,9.33,0,0,0-3.52-3.93,13.85,13.85,0,0,0-5.53-1.92,47.14,47.14,0,0,0-6.73-.47,45.29,45.29,0,0,0-9.62,1.23,64.55,64.55,0,0,0-11.07,3.55h-.69v-12q3.27-.94,9.37-2.08A66.06,66.06,0,0,1,438,25.91,55.93,55.93,0,0,1,450.21,27a23.5,23.5,0,0,1,8.93,4.09,17.53,17.53,0,0,1,5.72,7.48,29.5,29.5,0,0,1,1.89,11.19v48H455Zm0-9.81V61.06q-4.21.38-10.66,1A57.59,57.59,0,0,0,433.92,64a19,19,0,0,0-7.8,4.43q-3.08,3-3.08,8.33,0,6,3.39,9.12t9.94,3.08a21.12,21.12,0,0,0,10.13-2.42A43.8,43.8,0,0,0,455,80.55Z"/><path d="M542.27,61.56q0,17.23-8.36,27.73T513,99.79a29.8,29.8,0,0,1-9.78-1.41,42.57,42.57,0,0,1-8-3.8l-.75,3.27H483.35V0h11.82V35a44.23,44.23,0,0,1,9.68-6.67,25.81,25.81,0,0,1,11.82-2.64,21.86,21.86,0,0,1,18.74,9.53Q542.26,44.71,542.27,61.56Zm-12.2.94q0-12.58-3.84-19.08t-12.32-6.51a23.31,23.31,0,0,0-9.78,2.26,38,38,0,0,0-9,5.72V85.14a43.2,43.2,0,0,0,7.92,3.11,29.81,29.81,0,0,0,7.61.91q9.06,0,14.21-6.42T530.07,62.5Z"/><path d="M582.44,99.42a38,38,0,0,1-13.27-2.23,27.26,27.26,0,0,1-10.38-6.76A30.82,30.82,0,0,1,552.07,79a49.38,49.38,0,0,1-2.39-16.19,46.09,46.09,0,0,1,2.48-16,34.47,34.47,0,0,1,6.63-11.32,27.52,27.52,0,0,1,10.34-7.07A35.4,35.4,0,0,1,582.44,26a38.14,38.14,0,0,1,11.16,1.64,59.45,59.45,0,0,1,9.59,3.77V44.65h-.69q-1.26-1.07-3.24-2.45a41.25,41.25,0,0,0-4.81-2.83,31.58,31.58,0,0,0-5.78-2.2,23.56,23.56,0,0,0-6.41-.94,18,18,0,0,0-14.75,6.95q-5.56,6.95-5.56,19.65,0,12.45,5.37,19.4t14.94,6.95a26.14,26.14,0,0,0,11-2.39,34.23,34.23,0,0,0,9.24-6.16h.69V93.88q-1.76.82-4.4,2A32.87,32.87,0,0,1,594,97.59q-3,.88-5.41,1.35A33,33,0,0,1,582.44,99.42Z"/></svg>