<svg id="Camada_1" data-name="Camada 1" xmlns="http://www.w3.org/2000/svg" viewBox="0 0 808.58 100"><defs><style>.cls-1{fill:#393738;}</style></defs><title>estudionline_logo_slim_dark</title><path class="cls-1" d="M794.84,55.1a28.16,28.16,0,0,0-1.37-8.24A15.26,15.26,0,0,0,783.59,37a34.1,34.1,0,0,0-19.34,0A23.48,23.48,0,0,0,757,41.14a20,20,0,0,0-4.87,6.13A22.91,22.91,0,0,0,750,55.1ZM778.15,99.61q-20.16,0-31.33-9.46T735.67,63.27q0-17.16,10.82-27.31t28.24-10.15a46.14,46.14,0,0,1,13.9,1.89,28.29,28.29,0,0,1,10.58,5.91,26.3,26.3,0,0,1,7,9.85,37,37,0,0,1,2.42,14.24v6.43H750q0,12.23,7.41,18.69T778,89.29a48.2,48.2,0,0,0,9.19-.88,48.69,48.69,0,0,0,8.14-2.28,61,61,0,0,0,6.51-2.8,38.31,38.31,0,0,0,4.41-2.56H807V93.7l-6.2,2q-3.71,1.23-6.65,1.92c-2.78.62-5.27,1.11-7.51,1.46A62.17,62.17,0,0,1,778.15,99.61Zm-56.48-1.55H707.45V58a67.12,67.12,0,0,0-.56-9,16.94,16.94,0,0,0-2.14-6.71,10.49,10.49,0,0,0-4.84-3.94A22.42,22.42,0,0,0,691.47,37a28.24,28.24,0,0,0-10.9,2.37,58.4,58.4,0,0,0-11,6.13V98.06H655.4V27.74h14.21v7.83a56.77,56.77,0,0,1,12.51-7.25,34.64,34.64,0,0,1,13-2.51q12.48,0,19.47,6.83t7,19.79ZM635.85,15.87H619.63V3.61h16.22Zm-1.08,82.19H620.56V27.74h14.21Zm-35.45,0H585.11V0h14.21Zm-34.55,0H550.56V58a65.45,65.45,0,0,0-.57-9,16.94,16.94,0,0,0-2.14-6.71A10.44,10.44,0,0,0,543,38.32,22.39,22.39,0,0,0,534.57,37a28.23,28.23,0,0,0-10.89,2.37,58.16,58.16,0,0,0-11,6.13V98.06H498.5V27.74h14.21v7.83a56.77,56.77,0,0,1,12.51-7.25,34.65,34.65,0,0,1,13.06-2.51q12.47,0,19.46,6.83t7,19.79ZM469.3,62.93q0-13.59-5.95-20.2t-16.91-6.6q-11,0-17.05,6.6t-6,20.2q0,13.16,6,19.95t17.05,6.8q10.89,0,16.89-6.67T469.3,62.93Zm14.68,0q0,17.76-10.25,27.41T446.44,100q-17.58,0-27.63-10T408.75,62.93q0-17.62,10.37-27.36t27.32-9.76q17,0,27.29,9.72T484,62.93Zm-88.9-47.06H378.85V3.61h16.23ZM394,98.06H379.78V27.74H394ZM344.77,80.9V40.43a53.36,53.36,0,0,0-9.5-2.86,48.38,48.38,0,0,0-9.12-.8c-7.34,0-13,2.28-17.2,6.82s-6.2,11.1-6.2,19.68c0,8.26,1.6,14.56,4.76,18.94s8.29,6.56,15.3,6.56a31.88,31.88,0,0,0,11.27-2.13A44.68,44.68,0,0,0,344.77,80.9ZM359,98.06H344.77v-7.2c-2.22,1.55-4.15,2.84-5.74,3.85a33.9,33.9,0,0,1-5.69,2.77,35.89,35.89,0,0,1-6.29,1.85,37.44,37.44,0,0,1-7.56.67,33.53,33.53,0,0,1-12.75-2.39,26.51,26.51,0,0,1-10-7,32.06,32.06,0,0,1-6.44-11.48,49.55,49.55,0,0,1-2.27-15.7,40.57,40.57,0,0,1,2.89-16,36.69,36.69,0,0,1,7.93-11.81,33,33,0,0,1,11.17-7.2,36.81,36.81,0,0,1,13.75-2.6,46.19,46.19,0,0,1,11,1.16,53,53,0,0,1,9.92,3.63V0H359Zm-85.38,0H259.39V90.24a62.69,62.69,0,0,1-12.46,7.26,33.25,33.25,0,0,1-13.1,2.5,34.33,34.33,0,0,1-10.38-1.51A22.52,22.52,0,0,1,215,93.7a21.75,21.75,0,0,1-5.61-8.24,32.28,32.28,0,0,1-2-12.08V27.74h14.22V67.81A70.65,70.65,0,0,0,222,77.1a16.45,16.45,0,0,0,2.21,6.45,10.23,10.23,0,0,0,4.71,4,23.12,23.12,0,0,0,8.57,1.26,28.39,28.39,0,0,0,11.08-2.47,52,52,0,0,0,10.78-6.09V27.74H273.6Zm-91.93,1.42c-7.75,0-13.8-1.82-18.13-5.5s-6.49-9.46-6.49-17.38V37.68h-9.58V27.74h9.58V7.48h14.21V27.74h26.11v9.94H171.26V71.1c0,3.57.08,6.32.23,8.23a12.39,12.39,0,0,0,1.73,5.42,7.79,7.79,0,0,0,4.15,3.31,22.17,22.17,0,0,0,7.77,1.1,25.8,25.8,0,0,0,6.72-.88,45.48,45.48,0,0,0,4.69-1.44h.82V97.46A74.59,74.59,0,0,1,189.26,99,58.68,58.68,0,0,1,181.67,99.48ZM110,99.61a62.49,62.49,0,0,1-15.75-1.89,78.28,78.28,0,0,1-12.18-4V80.39h.75c1.21.79,2.62,1.7,4.24,2.66a43.27,43.27,0,0,0,6.49,3.06,66,66,0,0,0,7.91,2.49,37.32,37.32,0,0,0,9,1.08,41.37,41.37,0,0,0,7.18-.67,19,19,0,0,0,5.71-1.68,11,11,0,0,0,3.79-3.09,8.68,8.68,0,0,0,1.16-4.95,7.67,7.67,0,0,0-2.71-6.39c-1.8-1.42-5-2.62-9.6-3.59q-2.7-.59-7.11-1.29c-2.91-.49-5.61-1-8.08-1.61-6.41-1.55-11.1-4-14-7.2A17.14,17.14,0,0,1,82.39,47.4q0-9.48,8.6-15.49c5.74-4,13.33-6,22.83-6a69.84,69.84,0,0,1,14.11,1.46,54.65,54.65,0,0,1,11.92,3.65V43.74h-.74A47.23,47.23,0,0,0,127.06,38a44.34,44.34,0,0,0-13.42-2.11,25.44,25.44,0,0,0-11.76,2.47c-3.22,1.64-4.82,4.11-4.82,7.45a7.86,7.86,0,0,0,2.84,6.6c1.87,1.44,4.89,2.62,9,3.57,2.11.45,4.46.9,7.06,1.33s5.3,1,8.18,1.55q9.35,2,14.06,6.47t4.71,12.35a18.29,18.29,0,0,1-2.13,8.58,19.88,19.88,0,0,1-6.31,7A34.91,34.91,0,0,1,124.3,98,52.21,52.21,0,0,1,110,99.61ZM59.16,55.1a27.85,27.85,0,0,0-1.36-8.24A15.31,15.31,0,0,0,47.91,37a29,29,0,0,0-9.68-1.38A29,29,0,0,0,28.58,37a23.64,23.64,0,0,0-7.24,4.11,20.06,20.06,0,0,0-4.86,6.13,22.91,22.91,0,0,0-2.11,7.83ZM42.48,99.61q-20.16,0-31.33-9.46T0,63.27Q0,46.11,10.81,36T39.06,25.81A46.18,46.18,0,0,1,53,27.7a28.29,28.29,0,0,1,10.58,5.91,26.16,26.16,0,0,1,6.95,9.85A37,37,0,0,1,72.91,57.7v6.43H14.37q0,12.23,7.41,18.69T42.3,89.29a48.2,48.2,0,0,0,9.19-.88,49,49,0,0,0,8.14-2.28,61.89,61.89,0,0,0,6.51-2.8,37.25,37.25,0,0,0,4.4-2.56h.83V93.7c-1.68.54-3.73,1.22-6.21,2s-4.68,1.46-6.64,1.92c-2.78.62-5.28,1.11-7.52,1.46A62,62,0,0,1,42.48,99.61Z"/></svg>